#N canvas 663 0 777 878 12;
#X obj 363 318 udpsend;
#X msg 363 286 disconnect;
#X obj 363 217 packOSC;
#X obj 363 353 tgl 15 0 empty empty 1=connected 20 8 0 8 -4034 -257985
-1 1 1;
#X floatatom 409 246 5 0 0 0 - - -;
#X msg 146 215 connect 192.168.1.106 8888;
#X msg 363 146 /osc1 \$1;
#X msg 290 145 /osc2 \$1;
#X floatatom 363 124 5 0 0 0 - - -;
#X floatatom 290 123 5 0 0 0 - - -;
#X floatatom 444 122 5 0 0 0 - - -;
#X floatatom 527 123 5 0 0 0 - - -;
#X msg 444 144 /osc3 \$1;
#X msg 527 145 /osc4 \$1;
#X connect 0 0 3 0;
#X connect 1 0 0 0;
#X connect 2 0 0 0;
#X connect 2 1 4 0;
#X connect 5 0 0 0;
#X connect 6 0 2 0;
#X connect 7 0 2 0;
#X connect 8 0 6 0;
#X connect 9 0 7 0;
#X connect 10 0 12 0;
#X connect 11 0 13 0;
#X connect 12 0 2 0;
#X connect 13 0 2 0;
